{
  "title": "Haider (2014) 1CD DVDSCR Rip Xvid Mp3 TeamTNT Exclusive",
  "uid": 11146718,
  "size": 731476018,
  "categoryP": "video",
  "categoryS": "movies",
  "magnet": "?xt=urn:btih:6c648440ee328f4426054ee1fbded2b3e3d77b02&amp;dn=Haider+%282014%29+1CD+DVDSCR+Rip+Xvid+Mp3+TeamTNT+Exclusive&amp;tr=udp%3A%2F%2Ftracker.openbittorrent.com%3A80&amp;tr=udp%3A%2F%2Fopen.demonii.com%3A1337&amp;tr=udp%3A%2F%2Ftracker.coppersurfer.tk%3A6969&amp;tr=udp%3A%2F%2Fexodus.desync.com%3A6969",
  "seeders": 60,
  "leechers": 10,
  "uploader": "inovai",
  "files": 18,
  "time": 1412276501,
  "description": "Haider (2014) 1CD DVDSCR Rip Xvid Mp3 TeamTNT Exclusive\n\nCover:\n &lt;a href=&quot;\nhttp://forum.primetimeshow.in/viewtopic.php?f=7&amp;t=749&quot; rel=&quot;nofollow&quot; target=&quot;_NEW&quot;&gt;\nhttp://forum.primetimeshow.in/viewtopic.php?f=7&amp;t=749&lt;/a&gt;\n\nMovie:............Haider\nSource: ..........DVDSCR @ TeamTNT\nYear:.............2014\nQuote:\nGeneral\nComplete name : D:Haider.avi\nFormat : AVI\nFormat/Info : Audio Video Interleave\nFile size : 694 MiB\nDuration : 2h 40mn\nOverall bit rate : 603 Kbps\n\nVideo\nID : 0\nFormat : MPEG-4 Visual\nFormat profile : Advanced Simple@L5\nFormat settings, BVOP : 2\nFormat settings, QPel : No\nFormat settings, GMC : No warppoints\nFormat settings, Matrix : Default (H.263)\nCodec ID : XVID\nCodec ID/Hint : XviD\nDuration : 2h 40mn\nBit rate : 517 Kbps\nWidth : 640 pixels\nHeight : 272 pixels\nDisplay aspect ratio : 2.35:1\nFrame rate : 23.976 fps\nColor space : YUV\nChroma subsampling : 4:2:0\nBit depth : 8 bits\nScan type : Progressive\nCompression mode : Lossy\nBits/(Pixel*Frame) : 0.124\nStream size : 595 MiB (86%)\nWriting library : XviD 1.2.1 (UTC 2008-12-04)\n\nAudio\nID : 1\nFormat : MPEG Audio\nFormat version : Version 1\nFormat profile : Layer 3\nMode : Joint stereo\nMode extension : MS Stereo\nCodec ID : 55\nCodec ID/Hint : MP3\nDuration : 2h 40mn\nBit rate mode : Constant\nBit rate : 80.0 Kbps\nChannel(s) : 2 channels\nSampling rate : 32.0 KHz\nCompression mode : Lossy\nStream size : 92.1 MiB (13%)\nAlignment : Aligned on interleaves\nInterleave, duration : 167 ms (4.00 video frames)\nInterleave, preload duration : 216 ms\nTitle : VTS_01_1 T01 2_0ch 192Kbps DELAY 0ms\nWriting library : LAME3.99r\nEncoding settings : -m j -V 4 -q 2 -lowpass 13.5 -b 80",
  "parsed": {
    "xt": "urn:btih:6c648440ee328f4426054ee1fbded2b3e3d77b02",
    "dn": "Haider (2014) 1CD DVDSCR Rip Xvid Mp3 TeamTNT Exclusive",
    "tr": [
      "udp://exodus.desync.com:6969",
      "udp://open.demonii.com:1337",
      "udp://tracker.coppersurfer.tk:6969",
      "udp://tracker.openbittorrent.com:80"
    ],
    "infoHash": "6c648440ee328f4426054ee1fbded2b3e3d77b02",
    "infoHashBuffer": {
      "type": "Buffer",
      "data": [
        108,
        100,
        132,
        64,
        238,
        50,
        143,
        68,
        38,
        5,
        78,
        225,
        251,
        222,
        210,
        179,
        227,
        215,
        123,
        2
      ]
    },
    "name": "Haider (2014) 1CD DVDSCR Rip Xvid Mp3 TeamTNT Exclusive",
    "announce": [
      "udp://exodus.desync.com:6969",
      "udp://open.demonii.com:1337",
      "udp://tracker.coppersurfer.tk:6969",
      "udp://tracker.openbittorrent.com:80"
    ],
    "urlList": []
  },
  "previous": 2,
  "peers": 1,
  "last_updated": "2016-12-27T03:07:04.416Z"
}